<svg xmlns="http://www.w3.org/2000/svg" version="1.1" xmlns:xlink="http://www.w3.org/1999/xlink" xmlns:svgjs="http://svgjs.dev/svgjs" width="1000" height="1205" viewBox="0 0 1000 1205"><g transform="matrix(1,0,0,1,1.5555555555557135,-1.7049468085103854)"><svg viewBox="0 0 117 141" data-background-color="#ffffff" preserveAspectRatio="xMidYMid meet" height="1205" width="1000" xmlns="http://www.w3.org/2000/svg" xmlns:xlink="http://www.w3.org/1999/xlink"><g id="tight-bounds" transform="matrix(1,0,0,1,-0.18200000000001637,0.19949999999997203)"><svg viewBox="0 0 117.36388595925044 140.60052000000002" height="140.60052000000002" width="117.36388595925044"><g><svg viewBox="0 0 117.36388595925044 140.60052000000002" height="140.60052000000002" width="117.36388595925044"><g><svg viewBox="0 0 117.36388595925044 140.60052000000002" height="140.60052000000002" width="117.36388595925044"><g><path d="M0 140.601v-140.601h117.364v140.601z" fill="#2a160c" stroke="transparent" stroke-width="0" rx="0%" data-fill-palette-color="tertiary"></path><path d="M9.85 130.751v-120.901h97.664v120.901z" fill="#2a160c" stroke="transparent" stroke-width="0" data-fill-palette-color="tertiary"></path></g><g transform="matrix(1,0,0,1,19.69974,19.69974)" id="textblocktransform"><svg viewBox="0 0 77.96440595925044 101.20104000000002" height="101.20104000000002" width="77.96440595925044" id="textblock"><g><svg viewBox="0 0 77.96440595925044 101.20104000000002" height="101.20104000000002" width="77.96440595925044"><g transform="matrix(1,0,0,1,0,0)"><svg width="77.96440595925044" viewBox="2.996666669845581 -55.31999969482422 50.62631154060364 63.77000045776367" height="101.20104000000002" data-palette-color="url(#acb92353-ba5a-4b1f-b634-17ec1ef2d30f)"><g transform="matrix(1,0,0,1,0,0)"><g><svg width="4.25570998555422" viewBox="1.9900000095367432 -36.86000061035156 28.760000228881836 37.369998931884766" height="5.529795999747923" data-palette-color="url(#acb92353-ba5a-4b1f-b634-17ec1ef2d30f)" id="scriptelement" x="46.09128273887038" y="-52.68105762969574"></svg></g></g></svg></g></svg></g></svg></g></svg></g><g></g></svg></g><defs></defs><mask id="e68846da-979f-4aa1-b9a9-b3a8c8172612"><g id="SvgjsG1418"><svg viewBox="0 0 117.36388595925044 140.60052000000002" height="140.60052000000002" width="117.36388595925044"><g><svg viewBox="0 0 117.36388595925044 140.60052000000002" height="140.60052000000002" width="117.36388595925044"><g><svg viewBox="0 0 117.36388595925044 140.60052000000002" height="140.60052000000002" width="117.36388595925044"><g><path d="M0 140.601v-140.601h117.364v140.601z" fill="black" stroke="transparent" stroke-width="0" rx="0%"></path><path d="M3.283 137.317v-134.034h110.798v134.034z" fill="white" stroke="transparent" stroke-width="0" rx="0%"></path><path d="M9.85 130.751v-120.901h97.664v120.901z" fill="black" stroke="transparent" stroke-width="0"></path></g><g transform="matrix(1,0,0,1,19.69974,19.69974)" id="SvgjsG1417"><svg viewBox="0 0 77.96440595925044 101.20104000000002" height="101.20104000000002" width="77.96440595925044" id="SvgjsSvg1416"><g><svg viewBox="0 0 77.96440595925044 101.20104000000002" height="101.20104000000002" width="77.96440595925044"><g transform="matrix(1,0,0,1,0,0)"><svg width="77.96440595925044" viewBox="2.996666669845581 -55.31999969482422 50.62631154060364 63.77000045776367" height="101.20104000000002" data-palette-color="url(#acb92353-ba5a-4b1f-b634-17ec1ef2d30f)"><g transform="matrix(1,0,0,1,0,0)"><g><svg width="4.25570998555422" viewBox="1.9900000095367432 -36.86000061035156 28.760000228881836 37.369998931884766" height="5.529795999747923" data-palette-color="url(#acb92353-ba5a-4b1f-b634-17ec1ef2d30f)" id="SvgjsSvg1415" x="46.09128273887038" y="-52.68105762969574"><path d="M30.26-25.91L22.89-25.91Q22.67-28.05 21.06-29.24 19.44-30.43 16.67-30.43L16.67-30.43Q14.79-30.43 13.49-29.91 12.2-29.39 11.51-28.46 10.83-27.54 10.83-26.37L10.83-26.37Q10.8-25.39 11.25-24.66 11.7-23.93 12.5-23.41 13.3-22.89 14.35-22.51 15.39-22.12 16.58-21.86L16.58-21.86 19.85-21.08Q22.23-20.54 24.22-19.66 26.21-18.77 27.66-17.47 29.12-16.18 29.93-14.42 30.74-12.66 30.75-10.39L30.75-10.39Q30.74-7.05 29.06-4.61 27.38-2.17 24.23-0.83 21.08 0.51 16.64 0.51L16.64 0.51Q12.23 0.51 8.98-0.83 5.72-2.18 3.9-4.84 2.08-7.49 1.99-11.42L1.99-11.42 9.43-11.42Q9.55-9.59 10.48-8.37 11.42-7.16 12.99-6.54 14.56-5.93 16.55-5.93L16.55-5.93Q18.5-5.93 19.95-6.5 21.4-7.07 22.19-8.08 22.99-9.09 22.99-10.4L22.99-10.4Q22.99-11.63 22.27-12.46 21.56-13.3 20.18-13.88 18.8-14.47 16.81-14.95L16.81-14.95 12.86-15.94Q8.26-17.06 5.59-19.44 2.93-21.82 2.95-25.85L2.95-25.85Q2.93-29.15 4.71-31.62 6.5-34.09 9.62-35.48 12.75-36.86 16.73-36.86L16.73-36.86Q20.77-36.86 23.8-35.48 26.83-34.09 28.52-31.62 30.2-29.15 30.26-25.91L30.26-25.91Z" opacity="1" transform="matrix(1,0,0,1,0,0)" fill="white" class="undefined-123" id="SvgjsPath1414"></path></svg></g></g><path d="M42.815-49.916C42.815-52.901 45.235-55.32 48.219-55.32 51.204-55.32 53.623-52.901 53.623-49.916 53.623-46.932 51.204-44.512 48.219-44.512 45.235-44.512 42.815-46.932 42.815-49.916ZM48.219-45.065C50.898-45.065 53.07-47.237 53.07-49.916 53.07-52.595 50.898-54.767 48.219-54.767 45.54-54.767 43.368-52.595 43.368-49.916 43.368-47.237 45.54-45.065 48.219-45.065Z" fill="white" id="SvgjsPath1413"></path><path d="M41.41 5.81L41.41 5.81Q41.41 6.4 41.06 6.81 40.72 7.23 40.23 7.5 39.75 7.76 39.21 7.98 38.67 8.2 38.28 8.45L38.28 8.45Q37.16 8.2 35.94 8.03 34.72 7.86 33.74 7.37L33.74 7.37Q31.74 5.18 30.93 2.32 30.13-0.54 29.88-3.37L29.88-3.37Q29.79-4.2 29.79-5 29.79-5.81 29.69-6.64L29.69-6.64Q29.59-7.37 28.81-7.52L28.81-7.52Q29.39-7.62 29.64-8.13 29.88-8.64 29.93-9.3 29.98-9.96 29.96-10.62 29.93-11.28 30.03-11.72L30.03-11.72Q29.64-11.57 29.35-11.06 29.05-10.55 28.81-9.91 28.56-9.28 28.34-8.67 28.13-8.06 27.93-7.71L27.93-7.71Q25.88-4.2 23.17-1.32 20.46 1.56 17.58 4.39L17.58 4.39Q16.75 4.69 16.02 5.15 15.28 5.62 14.65 6.15L14.65 6.15Q12.79 6.69 11.13 6.69L11.13 6.69Q9.62 6.69 8.15 6.27 6.69 5.86 5.52 4.88L5.52 4.88 3.71 0.78Q3.56 0.39 3.37-0.02 3.17-0.44 3.08-0.83L3.08-0.83Q2.98-1.27 3-1.78 3.03-2.29 3.03-2.69L3.03-2.69Q3.03-4.39 3.15-6.13 3.27-7.86 3.52-9.57L3.52-9.57Q3.61-10.25 3.81-10.99 4-11.72 4.1-12.4L4.1-12.4 4.1-12.94Q4.1-13.18 4.05-13.55 4-13.92 3.76-14.01L3.76-14.01Q4.93-16.85 4.93-19.92L4.93-19.92Q4.93-20.41 4.91-20.87 4.88-21.34 4.83-21.83L4.83-21.83Q5.18-22.17 5.27-22.63 5.37-23.1 5.37-23.61 5.37-24.12 5.4-24.61 5.42-25.1 5.66-25.54L5.66-25.54Q5.62-26.07 5.59-26.59 5.57-27.1 5.57-27.64L5.57-27.64Q5.57-30.91 6.08-34.11 6.59-37.3 6.59-40.58L6.59-40.58 6.59-42.63Q6.59-43.31 6.62-44.04 6.64-44.78 6.81-45.46 6.98-46.14 7.32-46.75 7.67-47.36 8.3-47.8L8.3-47.8Q8.4-47.8 8.47-47.83 8.54-47.85 8.64-47.85L8.64-47.85Q9.08-47.85 9.33-47.63 9.57-47.41 10.06-47.46L10.06-47.46Q10.94-46.19 11.45-44.78 11.96-43.36 11.96-41.8L11.96-41.8Q11.96-40.63 11.62-39.5 11.28-38.38 11.28-37.16L11.28-37.16Q11.28-36.67 11.33-36.18 11.38-35.69 11.38-35.21L11.38-35.21Q11.38-34.72 11.25-34.25 11.13-33.79 10.79-33.45L10.79-33.45Q10.89-32.47 10.94-31.47 10.99-30.47 10.99-29.49L10.99-29.49Q10.99-26.71 10.64-23.93 10.3-21.14 9.86-18.36 9.42-15.58 9.08-12.79 8.74-10.01 8.74-7.18L8.74-7.18 8.74-5.76Q8.74-5.08 8.84-4.35L8.84-4.35Q8.54-3.66 8.54-2.88L8.54-2.88Q8.54-1.81 9.03-0.78 9.52 0.24 10.21 1.07L10.21 1.07Q10.45 1.12 10.67 1.15 10.89 1.17 11.13 1.17L11.13 1.17Q12.4 1.17 13.4 0.63 14.4 0.1 15.31-0.68 16.21-1.46 17.09-2.29 17.97-3.13 18.99-3.66L18.99-3.66Q20.56-5.66 21.92-7.69 23.29-9.72 24.56-11.91L24.56-11.91Q24.66-13.09 25.17-14.28 25.68-15.48 26.25-16.65 26.81-17.82 27.27-18.95 27.73-20.07 27.73-21.09L27.73-21.09Q27.73-21.63 27.39-21.83L27.39-21.83Q27.88-23.1 28.13-24.46 28.37-25.83 28.54-27.2 28.71-28.56 28.91-29.91 29.1-31.25 29.49-32.57L29.49-32.57Q29.49-32.86 29.47-33.15 29.44-33.45 29.44-33.74L29.44-33.74Q29.44-35.99 29.88-38.16 30.32-40.33 30.32-42.58L30.32-42.58Q30.32-43.12 30.25-43.58 30.18-44.04 30.18-44.48L30.18-44.48Q30.18-44.87 30.44-44.97 30.71-45.07 30.71-45.51L30.71-45.51Q30.71-45.9 30.64-46.34 30.57-46.78 30.57-47.27L30.57-47.27Q30.57-48.78 30.86-50.24 31.15-51.71 31.15-53.22L31.15-53.22 31.15-53.81Q31.15-54.15 31.05-54.44L31.05-54.44Q31.4-54.98 31.98-55.15 32.57-55.32 33.11-55.32L33.11-55.32Q33.98-55.32 34.57-55.13L34.57-55.13Q35.5-52.64 36.13-50.02 36.77-47.41 37.16-44.73L37.16-44.73Q37.26-44.09 37.43-43.38 37.6-42.68 37.6-41.99L37.6-41.99Q37.6-41.85 37.52-41.65 37.45-41.46 37.4-41.26L37.4-41.26Q37.35-40.87 37.33-40.48 37.3-40.09 37.3-39.7L37.3-39.7Q37.3-38.53 37.45-37.35 37.6-36.18 37.6-34.96L37.6-34.96Q37.6-33.59 37.23-32.35 36.87-31.1 36.67-29.74L36.67-29.74Q36.47-28.32 36.52-26.95 36.57-25.59 36.33-24.17L36.33-24.17Q36.23-23.58 36.04-23.02 35.84-22.46 35.84-21.83L35.84-21.83Q35.84-21.39 35.91-20.95 35.99-20.51 35.99-20.02L35.99-20.02Q35.99-19.29 35.64-18.9L35.64-18.9Q35.74-18.51 35.79-18.19 35.84-17.87 35.99-17.48L35.99-17.48Q35.74-17.19 35.64-16.85 35.55-16.5 35.55-16.11L35.55-16.11Q35.55-15.63 35.6-15.21 35.64-14.79 35.64-14.36L35.64-14.36Q35.64-13.33 35.33-12.4 35.01-11.47 34.91-10.5L34.91-10.5Q34.86-9.81 34.89-9.16 34.91-8.5 34.91-7.81L34.91-7.81Q34.91-7.08 34.84-6.4 34.77-5.71 34.42-5.03L34.42-5.03Q34.52-4.74 34.67-4.44 34.81-4.15 35.11-4L35.11-4Q35.11-2.49 35.52-0.95 35.94 0.59 36.67 1.95L36.67 1.95Q36.82 2.25 37.11 2.39 37.4 2.54 37.65 2.71 37.89 2.88 38.04 3.13 38.18 3.37 38.09 3.86L38.09 3.86Q38.18 3.91 38.38 3.91L38.38 3.91Q38.77 3.91 39.04 3.71 39.31 3.52 39.7 3.52L39.7 3.52 40.04 3.52Q40.48 3.96 40.94 4.54 41.41 5.13 41.41 5.81Z" opacity="1" transform="matrix(1,0,0,1,0,0)" fill="white" class="wordmark-text-0" id="SvgjsPath1412"></path></svg></g></svg></g></svg></g></svg></g><g></g></svg></g><defs></defs></svg></g></mask><linearGradient x1="0" x2="1" y1="0.5" y2="0.5" id="acb92353-ba5a-4b1f-b634-17ec1ef2d30f"><stop stop-color="#ffa62e" offset="0"></stop><stop stop-color="#f71b3d" offset="1"></stop></linearGradient><rect width="117.36399841308594" height="140.6009979248047" fill="url(#acb92353-ba5a-4b1f-b634-17ec1ef2d30f)" mask="url(#e68846da-979f-4aa1-b9a9-b3a8c8172612)" data-fill-palette-color="quaternary"></rect></svg><rect width="117.36388595925044" height="140.60052000000002" fill="none" stroke="none" visibility="hidden"></rect></g></svg></g></svg>